<mxfile host="app.diagrams.net" agent="Mozilla/5.0 (Windows NT 10.0; Win64; x64) AppleWebKit/537.36 (KHTML, like Gecko) Chrome/133.0.0.0 Safari/537.36" version="26.0.16">
  <diagram id="JR_gFKTN4dOrLs-5yYmG" name="Page-1">
    <mxGraphModel dx="1354" dy="775" grid="1" gridSize="10" guides="1" tooltips="1" connect="1" arrows="1" fold="1" page="1" pageScale="1" pageWidth="850" pageHeight="1100" math="0" shadow="0">
      <root>
        <mxCell id="0" />
        <mxCell id="1" parent="0" />
        <mxCell id="dL4SVSzQffez0h3C18um-6" value="" style="rounded=0;whiteSpace=wrap;html=1;" vertex="1" parent="1">
          <mxGeometry x="200" y="120" width="100" height="370" as="geometry" />
        </mxCell>
        <mxCell id="dL4SVSzQffez0h3C18um-7" value="" style="rounded=0;whiteSpace=wrap;html=1;" vertex="1" parent="1">
          <mxGeometry x="360" y="160" width="70" height="205" as="geometry" />
        </mxCell>
        <mxCell id="dL4SVSzQffez0h3C18um-8" value="wtntp" style="rounded=0;whiteSpace=wrap;html=1;" vertex="1" parent="1">
          <mxGeometry x="200" y="340" width="100" height="20" as="geometry" />
        </mxCell>
        <mxCell id="dL4SVSzQffez0h3C18um-9" value="myscope" style="rounded=0;whiteSpace=wrap;html=1;" vertex="1" parent="1">
          <mxGeometry x="200" y="320" width="100" height="20" as="geometry" />
        </mxCell>
        <mxCell id="dL4SVSzQffez0h3C18um-10" value="scope" style="rounded=0;whiteSpace=wrap;html=1;" vertex="1" parent="1">
          <mxGeometry x="200" y="300" width="100" height="20" as="geometry" />
        </mxCell>
        <mxCell id="dL4SVSzQffez0h3C18um-11" value="acqc" style="rounded=0;whiteSpace=wrap;html=1;" vertex="1" parent="1">
          <mxGeometry x="200" y="280" width="100" height="20" as="geometry" />
        </mxCell>
        <mxCell id="dL4SVSzQffez0h3C18um-12" value="acqscope[Maxhosts]" style="rounded=0;whiteSpace=wrap;html=1;fillColor=#d5e8d4;strokeColor=#82b366;" vertex="1" parent="1">
          <mxGeometry x="200" y="260" width="100" height="20" as="geometry" />
        </mxCell>
        <mxCell id="dL4SVSzQffez0h3C18um-13" value="acqscope[0]" style="rounded=0;whiteSpace=wrap;html=1;fillColor=#dae8fc;strokeColor=#6c8ebf;" vertex="1" parent="1">
          <mxGeometry x="200" y="200" width="100" height="20" as="geometry" />
        </mxCell>
        <mxCell id="dL4SVSzQffez0h3C18um-15" value="acqs[Maxhosts]" style="rounded=0;whiteSpace=wrap;html=1;fillColor=#d5e8d4;strokeColor=#82b366;" vertex="1" parent="1">
          <mxGeometry x="200" y="180" width="100" height="20" as="geometry" />
        </mxCell>
        <mxCell id="dL4SVSzQffez0h3C18um-16" value="acqs[0]" style="rounded=0;whiteSpace=wrap;html=1;fillColor=#dae8fc;strokeColor=#6c8ebf;" vertex="1" parent="1">
          <mxGeometry x="200" y="120" width="100" height="20" as="geometry" />
        </mxCell>
        <mxCell id="dL4SVSzQffez0h3C18um-17" value="" style="endArrow=none;dashed=1;html=1;dashPattern=1 3;strokeWidth=2;rounded=0;" edge="1" parent="1">
          <mxGeometry width="50" height="50" relative="1" as="geometry">
            <mxPoint x="249.5" y="170" as="sourcePoint" />
            <mxPoint x="249.5" y="150" as="targetPoint" />
          </mxGeometry>
        </mxCell>
        <mxCell id="dL4SVSzQffez0h3C18um-20" value="" style="endArrow=none;dashed=1;html=1;dashPattern=1 3;strokeWidth=2;rounded=0;" edge="1" parent="1">
          <mxGeometry width="50" height="50" relative="1" as="geometry">
            <mxPoint x="249.5" y="250" as="sourcePoint" />
            <mxPoint x="249.5" y="230" as="targetPoint" />
          </mxGeometry>
        </mxCell>
        <mxCell id="dL4SVSzQffez0h3C18um-22" value="more" style="rounded=0;whiteSpace=wrap;html=1;" vertex="1" parent="1">
          <mxGeometry x="360" y="335" width="70" height="30" as="geometry" />
        </mxCell>
        <mxCell id="dL4SVSzQffez0h3C18um-23" value="" style="endArrow=classic;html=1;rounded=0;exitX=1;exitY=0.5;exitDx=0;exitDy=0;entryX=0;entryY=0.5;entryDx=0;entryDy=0;" edge="1" parent="1" source="dL4SVSzQffez0h3C18um-8" target="dL4SVSzQffez0h3C18um-22">
          <mxGeometry width="50" height="50" relative="1" as="geometry">
            <mxPoint x="400" y="430" as="sourcePoint" />
            <mxPoint x="450" y="380" as="targetPoint" />
          </mxGeometry>
        </mxCell>
        <mxCell id="dL4SVSzQffez0h3C18um-24" value="" style="rounded=0;whiteSpace=wrap;html=1;" vertex="1" parent="1">
          <mxGeometry x="480" y="160" width="70" height="205" as="geometry" />
        </mxCell>
        <mxCell id="dL4SVSzQffez0h3C18um-25" value="more" style="rounded=0;whiteSpace=wrap;html=1;" vertex="1" parent="1">
          <mxGeometry x="480" y="335" width="70" height="30" as="geometry" />
        </mxCell>
        <mxCell id="dL4SVSzQffez0h3C18um-26" value="" style="endArrow=classic;html=1;rounded=0;exitX=1;exitY=0.5;exitDx=0;exitDy=0;" edge="1" parent="1">
          <mxGeometry width="50" height="50" relative="1" as="geometry">
            <mxPoint x="430" y="349" as="sourcePoint" />
            <mxPoint x="480" y="349" as="targetPoint" />
          </mxGeometry>
        </mxCell>
        <mxCell id="dL4SVSzQffez0h3C18um-27" value="addr 0" style="rounded=0;whiteSpace=wrap;html=1;" vertex="1" parent="1">
          <mxGeometry x="360" y="160" width="70" height="20" as="geometry" />
        </mxCell>
        <mxCell id="dL4SVSzQffez0h3C18um-28" value="addr i" style="rounded=0;whiteSpace=wrap;html=1;" vertex="1" parent="1">
          <mxGeometry x="360" y="215" width="70" height="20" as="geometry" />
        </mxCell>
        <mxCell id="dL4SVSzQffez0h3C18um-29" value="" style="endArrow=none;dashed=1;html=1;dashPattern=1 3;strokeWidth=2;rounded=0;" edge="1" parent="1">
          <mxGeometry width="50" height="50" relative="1" as="geometry">
            <mxPoint x="394.5" y="205" as="sourcePoint" />
            <mxPoint x="394.5" y="185" as="targetPoint" />
          </mxGeometry>
        </mxCell>
        <mxCell id="dL4SVSzQffez0h3C18um-30" value="from 0" style="rounded=0;whiteSpace=wrap;html=1;" vertex="1" parent="1">
          <mxGeometry x="360" y="235" width="70" height="20" as="geometry" />
        </mxCell>
        <mxCell id="dL4SVSzQffez0h3C18um-33" value="" style="endArrow=none;dashed=1;html=1;dashPattern=1 3;strokeWidth=2;rounded=0;" edge="1" parent="1">
          <mxGeometry width="50" height="50" relative="1" as="geometry">
            <mxPoint x="394.84" y="283" as="sourcePoint" />
            <mxPoint x="394.84" y="263" as="targetPoint" />
          </mxGeometry>
        </mxCell>
        <mxCell id="dL4SVSzQffez0h3C18um-34" value="from i" style="rounded=0;whiteSpace=wrap;html=1;" vertex="1" parent="1">
          <mxGeometry x="360" y="295" width="70" height="20" as="geometry" />
        </mxCell>
        <mxCell id="dL4SVSzQffez0h3C18um-36" value="wtntc" style="rounded=0;whiteSpace=wrap;html=1;" vertex="1" parent="1">
          <mxGeometry x="360" y="315" width="70" height="20" as="geometry" />
        </mxCell>
        <mxCell id="dL4SVSzQffez0h3C18um-37" value="" style="shape=curlyBracket;whiteSpace=wrap;html=1;rounded=1;labelPosition=left;verticalLabelPosition=middle;align=right;verticalAlign=middle;" vertex="1" parent="1">
          <mxGeometry x="170" y="120" width="20" height="240" as="geometry" />
        </mxCell>
        <mxCell id="dL4SVSzQffez0h3C18um-38" value="locks[0]" style="text;html=1;align=center;verticalAlign=middle;resizable=0;points=[];autosize=1;strokeColor=none;fillColor=none;" vertex="1" parent="1">
          <mxGeometry x="110" y="225" width="60" height="30" as="geometry" />
        </mxCell>
        <mxCell id="dL4SVSzQffez0h3C18um-39" value="" style="endArrow=none;dashed=1;html=1;dashPattern=1 3;strokeWidth=2;rounded=0;" edge="1" parent="1">
          <mxGeometry width="50" height="50" relative="1" as="geometry">
            <mxPoint x="248.5" y="390" as="sourcePoint" />
            <mxPoint x="248.5" y="370" as="targetPoint" />
          </mxGeometry>
        </mxCell>
      </root>
    </mxGraphModel>
  </diagram>
</mxfile>
